<svg width="28" height="28" viewBox="0 0 28 28" fill="none" xmlns="http://www.w3.org/2000/svg">
<path fill-rule="evenodd" clip-rule="evenodd" d="M26.0491 14.2328C26.0491 20.8872 20.6546 26.2818 14.0001 26.2818C7.34561 26.2818 1.95108 20.8872 1.95108 14.2328C1.95108 7.57827 7.34561 2.18375 14.0001 2.18375C20.6546 2.18375 26.0491 7.57827 26.0491 14.2328ZM27.3879 14.2328C27.3879 21.6266 21.394 27.6205 14.0001 27.6205C6.60622 27.6205 0.612305 21.6266 0.612305 14.2328C0.612305 6.83889 6.60622 0.844971 14.0001 0.844971C21.394 0.844971 27.3879 6.83889 27.3879 14.2328ZM13.9407 7.53886C12.0363 7.53886 11.1399 8.98021 10.9766 9.86039C10.9092 10.2239 10.5598 10.4639 10.1963 10.3964C9.83285 10.329 9.59285 9.97967 9.66029 9.61618C9.90449 8.29992 11.2086 6.20008 13.9407 6.20008C15.5457 6.20008 16.6369 6.84126 17.3058 7.74241C17.9508 8.6114 18.1599 9.66079 18.1599 10.4555C18.1599 11.7985 17.4014 12.7429 16.6836 13.4339C16.4455 13.6631 16.1842 13.8892 15.9509 14.091C15.842 14.1853 15.739 14.2744 15.6474 14.356C15.3309 14.6381 15.1241 14.8522 15.0112 15.0384C14.8677 15.2752 14.7871 15.414 14.7257 15.6376C14.6604 15.8757 14.6101 16.2422 14.6101 16.9103C14.6101 17.28 14.3104 17.5797 13.9407 17.5797C13.571 17.5797 13.2713 17.28 13.2713 16.9103C13.2713 16.1889 13.3239 15.687 13.4346 15.2834C13.5483 14.8692 13.7148 14.5945 13.8624 14.3508L13.8663 14.3445C14.093 13.9704 14.4374 13.6411 14.7568 13.3565C14.8786 13.2479 14.9971 13.1456 15.1137 13.0447C15.3306 12.8573 15.5412 12.6753 15.755 12.4695C16.3933 11.855 16.8211 11.2417 16.8211 10.4555C16.8211 9.8606 16.6588 9.11698 16.2308 8.54037C15.8266 7.9959 15.1429 7.53886 13.9407 7.53886ZM15.3389 20.9266C15.3389 21.666 14.7395 22.2654 14.0001 22.2654C13.2607 22.2654 12.6613 21.666 12.6613 20.9266C12.6613 20.1873 13.2607 19.5879 14.0001 19.5879C14.7395 19.5879 15.3389 20.1873 15.3389 20.9266Z" fill="white"/>
</svg>
