<svg width="48" height="48" viewBox="12 12 25 25" fill="none" xmlns="http://www.w3.org/2000/svg">
<path fill-rule="evenodd" clip-rule="evenodd" d="M26.82 15H31C32.1 15 33 15.9 33 17V31C33 32.1 32.1 33 31 33H17C15.9 33 15 32.1 15 31V17C15 15.9 15.9 15 17 15H21.18C21.6 13.84 22.7 13 24 13C25.3 13 26.4 13.84 26.82 15ZM25 16C25 15.45 24.55 15 24 15C23.45 15 23 15.45 23 16C23 16.55 23.45 17 24 17C24.55 17 25 16.55 25 16ZM20 20C20 20.5523 19.5523 21 19 21C18.4477 21 18 20.5523 18 20C18 19.4477 18.4477 19 19 19C19.5523 19 20 19.4477 20 20ZM20 24C20 24.5523 19.5523 25 19 25C18.4477 25 18 24.5523 18 24C18 23.4477 18.4477 23 19 23C19.5523 23 20 23.4477 20 24ZM19 29C19.5523 29 20 28.5523 20 28C20 27.4477 19.5523 27 19 27C18.4477 27 18 27.4477 18 28C18 28.5523 18.4477 29 19 29ZM21 20C21 19.4477 21.4477 19 22 19H29C29.5523 19 30 19.4477 30 20C30 20.5523 29.5523 21 29 21H22C21.4477 21 21 20.5523 21 20ZM22 23C21.4477 23 21 23.4477 21 24C21 24.5523 21.4477 25 22 25H28C28.5523 25 29 24.5523 29 24C29 23.4477 28.5523 23 28 23H22ZM21 28C21 27.4477 21.4477 27 22 27H27C27.5523 27 28 27.4477 28 28C28 28.5523 27.5523 29 27 29H22C21.4477 29 21 28.5523 21 28Z" fill="white"/>
</svg>
